<svg width="640" height="571" viewBox="0 0 640 571" fill="none" xmlns="http://www.w3.org/2000/svg">
<path d="M589.455 285.15C589.455 435.407 467.637 557.225 317.381 557.225C167.124 557.225 45.3059 435.407 45.3059 285.15C45.3059 134.893 167.124 13.0753 317.381 13.0753C467.637 13.0753 589.455 134.893 589.455 285.15Z" fill="#572930"/>
<path d="M319.69 570.3C162.459 570.3 34.5397 442.38 34.5397 285.15C34.5397 127.92 162.459 0 319.69 0C476.92 0 604.84 127.92 604.84 285.15C604.84 442.38 476.92 570.3 319.69 570.3ZM319.69 26.1506C176.646 26.1506 60.6902 142.106 60.6902 285.15C60.6902 428.194 176.646 544.149 319.69 544.149C462.733 544.149 578.689 428.194 578.689 285.15C578.515 142.194 462.646 26.3249 319.69 26.1506Z" fill="#F19EBD"/>
<path d="M154.071 492.764C151.826 490.955 148.535 491.304 146.727 493.57C144.918 495.815 145.267 499.105 147.533 500.914C149.799 502.723 153.068 502.374 154.877 500.108C156.686 497.863 156.337 494.594 154.092 492.786C154.092 492.786 154.092 492.786 154.071 492.786V492.764Z" fill="#E32973"/>
<path d="M124.543 472.911C122.516 474.96 122.516 478.272 124.565 480.299C125.545 481.258 126.853 481.802 128.247 481.824C129.62 481.824 130.95 481.279 131.93 480.299C134.066 478.359 134.24 475.047 132.301 472.911C130.361 470.776 127.049 470.601 124.913 472.541C124.783 472.65 124.674 472.78 124.543 472.911Z" fill="#E32973"/>
<path d="M104.755 449.899C102.51 451.686 102.14 454.976 103.926 457.221C104.907 458.463 106.411 459.182 108.002 459.182C109.178 459.182 110.333 458.812 111.249 458.071C113.515 456.262 113.864 452.971 112.077 450.705C110.268 448.439 106.977 448.09 104.711 449.877H104.755V449.899Z" fill="#E32973"/>
<path d="M231.912 535.759C229.188 534.8 226.202 536.238 225.244 538.962C224.285 541.686 225.723 544.672 228.447 545.631C229.014 545.805 229.58 545.892 230.169 545.914C233.067 545.914 235.399 543.561 235.377 540.662C235.377 538.461 233.982 536.5 231.912 535.759Z" fill="#E32973"/>
<path d="M260.525 544.062C257.692 543.496 254.946 545.326 254.357 548.159C253.813 550.883 255.491 553.585 258.215 554.261C258.585 554.348 258.977 554.37 259.37 554.37C262.268 554.326 264.556 551.929 264.513 549.053C264.469 546.677 262.835 544.629 260.525 544.062Z" fill="#E32973"/>
<path d="M204.432 524.427C201.839 523.163 198.7 524.231 197.437 526.846C196.173 529.439 197.24 532.577 199.855 533.841C202.449 535.105 205.587 534.037 206.851 531.422C208.093 528.807 207.025 525.691 204.432 524.427Z" fill="#E32973"/>
<path d="M178.391 510.001C175.951 508.476 172.747 509.216 171.222 511.635C169.696 514.054 170.437 517.28 172.856 518.805C175.297 520.33 178.5 519.611 180.026 517.171C181.551 514.752 180.832 511.548 178.413 510.023C178.413 510.023 178.413 510.023 178.391 510.023V510.001Z" fill="#E32973"/>
<path d="M51.1904 320.649C54.1324 320.497 56.377 317.969 56.2026 315.049C56.0501 312.107 53.5222 309.862 50.6021 310.037C47.6819 310.211 45.4155 312.717 45.5899 315.637C45.7424 318.339 47.8998 320.497 50.6021 320.649H51.1904Z" fill="#E32973"/>
<path d="M87.6264 424.815C85.1857 426.363 84.4448 429.588 85.992 432.029C87.5393 434.469 90.7645 435.21 93.2052 433.663C95.6459 432.116 96.3869 428.891 94.8396 426.45C93.3142 424.009 90.1107 423.268 87.67 424.794C87.67 424.794 87.6482 424.794 87.6264 424.815Z" fill="#E32973"/>
<path d="M60.7569 344.251C60.1031 341.439 57.3138 339.696 54.5026 340.35C51.6914 341.004 49.948 343.793 50.6018 346.604C51.1466 348.958 53.2386 350.614 55.6576 350.636C56.0498 350.636 56.4421 350.57 56.8343 350.483C59.6455 349.851 61.3889 347.062 60.7569 344.251Z" fill="#E32973"/>
<path d="M73.4402 397.968C70.8469 399.189 69.7355 402.305 70.9559 404.898C71.8058 406.707 73.6145 407.862 75.6194 407.884C76.3821 407.884 77.1231 407.688 77.7986 407.361C80.5226 406.445 81.9827 403.482 81.0675 400.758C80.1522 398.034 77.1884 396.574 74.4644 397.489C74.094 397.62 73.7671 397.772 73.4402 397.968Z" fill="#E32973"/>
<path d="M62.3249 369.66C59.6009 370.597 58.1408 373.583 59.0779 376.307C59.8188 378.442 61.8237 379.859 64.0683 379.837C64.6567 379.837 65.2451 379.728 65.7899 379.532C68.5139 378.573 69.9522 375.587 68.9933 372.863C68.0345 370.139 65.0489 368.701 62.3249 369.66Z" fill="#E32973"/>
<path d="M514.839 472.911C512.791 470.885 509.5 470.906 507.473 472.955C505.447 475.003 505.468 478.294 507.517 480.321C508.476 481.279 509.783 481.802 511.134 481.824C512.529 481.824 513.88 481.258 514.861 480.277C516.887 478.25 516.887 474.96 514.861 472.933C514.861 472.933 514.861 472.933 514.839 472.911Z" fill="#E32973"/>
<path d="M534.648 449.877C532.382 448.068 529.091 448.438 527.282 450.705C525.473 452.971 525.844 456.262 528.11 458.07C529.026 458.811 530.181 459.204 531.357 459.204C534.256 459.204 536.587 456.85 536.587 453.973C536.587 452.383 535.868 450.901 534.626 449.898H534.648V449.877Z" fill="#E32973"/>
<path d="M485.31 492.763C483.066 494.55 482.695 497.841 484.482 500.085C485.485 501.328 486.988 502.068 488.579 502.047C491.456 502.047 493.787 499.737 493.809 496.86C493.809 495.662 493.417 494.507 492.654 493.57C490.867 491.325 487.577 490.954 485.332 492.741C485.332 492.741 485.332 492.741 485.31 492.741V492.763Z" fill="#E32973"/>
<path d="M584.858 340.372C582.047 339.74 579.257 341.505 578.603 344.316C577.95 347.105 579.693 349.895 582.482 350.527C582.482 350.527 582.526 350.527 582.548 350.527C582.918 350.636 583.311 350.679 583.703 350.679C586.601 350.679 588.933 348.326 588.933 345.449C588.933 343.008 587.233 340.895 584.858 340.35V340.372Z" fill="#E32973"/>
<path d="M589.325 310.342C586.449 310.08 583.899 312.172 583.616 315.049C583.354 317.86 585.359 320.366 588.17 320.737H588.759C591.657 320.671 593.945 318.296 593.88 315.398C593.836 312.804 591.897 310.647 589.325 310.32V310.342Z" fill="#E32973"/>
<path d="M577.033 369.725C574.374 368.614 571.302 369.856 570.19 372.514C569.079 375.173 570.321 378.246 572.98 379.357C573.176 379.444 573.372 379.51 573.568 379.553C574.113 379.749 574.701 379.836 575.289 379.836C578.166 379.858 580.52 377.548 580.541 374.672C580.541 372.427 579.147 370.422 577.033 369.703V369.725Z" fill="#E32973"/>
<path d="M565.942 397.968C563.327 396.77 560.211 397.925 559.012 400.54C557.835 403.089 558.881 406.119 561.387 407.383C562.063 407.709 562.804 407.862 563.567 407.884C566.443 407.927 568.797 405.617 568.84 402.741C568.862 400.714 567.707 398.84 565.855 397.968H565.942Z" fill="#E32973"/>
<path d="M551.756 424.816C549.533 422.986 546.264 423.291 544.434 425.514C542.603 427.736 542.908 431.005 545.131 432.836C545.458 433.119 545.828 433.337 546.22 433.533C547.049 434.078 548.007 434.361 548.988 434.361C551.886 434.361 554.196 431.986 554.175 429.087C554.175 427.322 553.259 425.666 551.777 424.729V424.816H551.756Z" fill="#E32973"/>
<path d="M378.792 544.062C375.981 544.716 374.215 547.527 374.869 550.338C375.392 552.713 377.506 554.413 379.947 554.391C380.339 554.391 380.731 554.348 381.102 554.261C383.913 553.563 385.591 550.709 384.894 547.919C384.218 545.217 381.538 543.517 378.792 544.062Z" fill="#E32973"/>
<path d="M289.879 549.031C287.002 548.878 284.54 551.101 284.387 553.999C284.257 556.636 286.109 558.946 288.702 559.404H289.312C292.211 559.338 294.499 556.963 294.434 554.065C294.39 551.471 292.45 549.314 289.879 548.987V549.031Z" fill="#E32973"/>
<path d="M349.415 549.031C346.56 549.401 344.534 552.016 344.904 554.893C345.231 557.464 347.41 559.404 350.003 559.447H350.592C353.447 558.946 355.342 556.222 354.819 553.389C354.362 550.796 352.03 548.944 349.415 549.074V549.031Z" fill="#E32973"/>
<path d="M434.927 524.45C432.334 525.714 431.266 528.83 432.53 531.423C433.794 534.017 436.91 535.084 439.504 533.82C442.075 532.557 443.165 529.462 441.923 526.869C440.681 524.276 437.564 523.186 434.971 524.45H434.927Z" fill="#E32973"/>
<path d="M460.968 510.001C458.527 511.526 457.764 514.73 459.29 517.17C460.249 518.718 461.949 519.655 463.779 519.633C464.76 519.633 465.719 519.35 466.547 518.848C468.966 517.279 469.663 514.032 468.094 511.613C466.547 509.216 463.387 508.497 460.968 510.001Z" fill="#E32973"/>
<path d="M407.425 535.759C404.701 536.74 403.285 539.725 404.266 542.449C405.006 544.519 406.946 545.914 409.147 545.914C409.735 545.914 410.302 545.805 410.869 545.631C413.571 544.585 414.9 541.577 413.876 538.875C412.895 536.304 410.062 534.931 407.425 535.759Z" fill="#E32973"/>
<path d="M319.865 550.731C316.967 550.774 314.679 553.149 314.701 556.026C314.744 558.401 316.379 560.45 318.689 561.038C319.081 561.147 319.473 561.191 319.865 561.169C322.764 561.169 325.095 558.815 325.074 555.917C325.074 553.04 322.742 550.709 319.865 550.709V550.731Z" fill="#E32973"/>
<path d="M639.403 382.277H0V271.007H639.403V382.277Z" fill="#E32973"/>
<path d="M73.0031 336.296C71.3469 332.526 69.0587 329.083 66.2475 326.097C64.1555 323.918 61.9327 321.891 59.5573 320.017C58.5113 319.167 51.1673 314.809 51.1673 313.872V313.284C56.7679 308.293 62.63 306.136 69.8868 307.77C70.5188 307.966 71.2161 308.01 71.8699 307.901C73.112 307.552 73.9837 306.441 74.0491 305.155C74.4413 301.036 71.7391 295.523 69.6907 292.08C67.9691 289.203 65.7899 289.901 62.5428 290.227C53.9785 291.165 45.8065 294.303 38.7894 299.315C32.8402 303.673 24.6027 310.647 28.4164 318.928C28.9394 319.952 29.6149 320.889 30.4648 321.674C34.2784 325.574 39.6393 328.386 43.8888 331.763C45.8283 333.311 58.5331 343.27 50.4264 343.771C46.6782 344.01 42.9517 343.335 39.5303 341.788C36.523 340.415 33.2542 336.623 29.7675 336.623H28.6779L28.1331 337.255C28.0895 341.548 28.3946 345.841 29.0919 350.09C29.4624 352.858 30.552 355.495 32.23 357.718C37.1768 363.754 49.9906 363.057 56.7243 361.444C65.4412 359.396 76.4898 351.812 74.7246 341.7C74.376 339.826 73.7876 338.018 73.0031 336.296Z" fill="white"/>
<path d="M610.267 336.296C608.611 332.526 606.323 329.083 603.49 326.097C601.463 323.896 599.262 321.848 596.952 319.952C595.906 319.08 588.562 314.722 588.562 313.806V313.196C594.141 308.228 600.047 306.07 607.282 307.705C607.914 307.901 608.611 307.944 609.265 307.835C610.485 307.465 611.357 306.375 611.444 305.09C611.836 300.949 609.134 295.458 607.086 292.014C605.386 289.138 603.185 289.835 599.938 290.14C591.374 291.099 583.202 294.237 576.185 299.249C570.235 303.608 561.998 310.581 565.812 318.862C566.335 319.887 567.01 320.824 567.838 321.608C571.674 325.509 577.034 328.298 581.306 331.698C583.223 333.223 595.906 343.182 587.843 343.705C584.073 343.967 580.281 343.291 576.838 341.722C573.809 340.349 570.54 336.536 567.054 336.536H565.964L565.419 337.189C565.376 341.482 565.681 345.776 566.378 350.025C566.749 352.793 567.838 355.408 569.516 357.63C574.463 363.689 587.299 362.97 594.032 361.379C602.749 359.308 613.776 351.747 612.011 341.613C611.64 339.783 611.052 337.996 610.267 336.296Z" fill="white"/>
<path d="M140.82 290.401H139.12C134.086 290.401 125.914 293.452 122.601 297.353C121.098 299.14 118.483 307.922 115.497 307.857C113.601 307.857 112.294 303.891 111.662 302.605C110.245 299.031 107.674 296.046 104.34 294.128C100.352 292.341 96.1458 291.099 91.831 290.401H90.2184C87.7995 291.861 85.7074 302.496 83.9423 322.327V357.587C83.9423 365.911 103.381 362.49 103.294 359.57L102.182 320.344V319.69C103.817 322.327 106.127 324.528 107.761 327.317C109.592 330.455 111.139 333.855 112.686 337.102C113.253 338.344 113.536 340.153 114.996 340.305C116.456 340.458 117.96 338.257 118.439 337.124C120.488 331.327 124.127 326.206 128.921 322.349L127.788 359.591C127.788 363.1 147.139 365.105 147.139 357.608V322.327C145.352 302.474 143.239 291.84 140.82 290.401Z" fill="white"/>
<path d="M221.256 356.04C219.97 346.342 217.704 336.797 214.501 327.557C211.559 319.32 208.486 311.061 205.784 302.627C204.302 298.269 201.97 290.249 196.086 290.249C193.014 290.249 186.149 288.963 183.534 290.511C183.142 290.794 182.793 291.143 182.532 291.557C181.268 293.453 180.2 295.501 179.393 297.637C164.858 331.48 157.601 351.42 157.601 357.5V358.175C157.601 362.294 170.48 362.294 172.529 361.335C175.885 359.723 177.563 354.231 178.696 350.94C179.568 348.412 179.786 344.403 181.289 342.223C183.469 339.151 187.086 339.826 190.006 340.044C192.403 340.24 194.713 340.981 196.784 342.223C199.617 343.727 199.9 347.257 200.292 350.047C200.597 352.226 201.011 360.115 203.583 361.204C206.154 362.294 214.37 361.967 219.273 361.924C219.84 361.945 220.406 361.836 220.907 361.575C221.801 360.965 221.823 359.679 221.692 358.589C221.561 357.5 221.409 356.933 221.256 356.04ZM197.045 328.865C196.173 328.974 195.28 328.974 194.408 328.865C187.871 328.276 186.214 328.168 186.214 326.511L186.759 324.332L191.401 311.083C191.401 311.083 192.033 309.819 192.556 311.083C194.321 315.877 195.781 320.78 196.914 325.749C197.132 326.598 197.503 328.429 197.154 328.908L197.045 328.865Z" fill="white"/>
<path d="M447.851 356.04C446.565 346.342 444.299 336.797 441.095 327.557C438.153 319.32 435.059 311.061 432.269 302.627C430.809 298.269 428.477 290.249 422.637 290.249C419.564 290.249 412.7 288.963 410.107 290.511C409.693 290.794 409.344 291.143 409.082 291.557C407.818 293.453 406.751 295.501 405.944 297.637C391.409 331.48 384.152 351.42 384.152 357.5V358.175C384.152 362.294 397.01 362.294 399.058 361.335C402.436 359.723 404.092 354.231 405.225 350.94C406.097 348.412 406.337 344.403 407.818 342.223C409.998 339.151 413.615 339.826 416.666 340.044C419.063 340.24 421.373 340.981 423.443 342.223C426.189 343.727 426.56 347.257 426.93 350.047C427.213 352.226 427.671 360.115 430.221 361.204C432.77 362.294 441.117 361.967 445.911 361.924C446.478 361.945 447.044 361.836 447.546 361.575C448.461 360.965 448.461 359.679 448.33 358.589C448.199 357.5 447.96 356.933 447.851 356.04ZM423.64 328.865C422.768 328.974 421.874 328.974 421.003 328.865C414.465 328.276 412.809 328.168 412.809 326.511L413.354 324.332L417.995 311.126C417.995 311.126 418.627 309.884 419.172 311.126C420.894 315.92 422.31 320.824 423.422 325.814C423.596 326.555 423.988 328.385 423.64 328.865Z" fill="white"/>
<path d="M251.807 343.248L252.417 324.965L251.807 303.957V302.584C251.807 299.577 251.48 296.548 251.502 293.519C251.545 292.974 251.502 292.429 251.306 291.928C250.805 290.882 249.715 290.228 248.56 290.271C242.829 290.271 232.129 295.131 232.129 301.887C232.129 326.904 234.243 345.209 238.492 356.781C239.56 359.701 244.005 360.072 246.664 360.529C254.052 361.554 261.504 362.142 268.979 362.273C270.112 362.447 271.267 362.229 272.27 361.662C275.037 359.701 272.575 352.183 271.638 349.764C271.529 349.35 271.289 348.979 270.94 348.718C270.679 348.609 270.417 348.565 270.134 348.544C267.388 348.347 251.807 348.042 251.807 343.248Z" fill="white"/>
<path d="M304 343.248L304.588 324.965L304 303.957V302.584C304 299.577 303.673 296.548 303.673 293.519C303.716 292.974 303.673 292.429 303.477 291.928C302.975 290.882 301.886 290.228 300.731 290.271C294.999 290.271 284.321 295.131 284.321 301.887C284.321 326.904 286.435 345.209 290.685 356.781C291.752 359.701 296.198 360.072 298.835 360.529C306.222 361.554 313.675 362.142 321.15 362.273C322.283 362.447 323.46 362.229 324.462 361.662C327.208 359.701 324.746 352.183 323.83 349.764C323.721 349.328 323.438 348.936 323.068 348.674C322.828 348.565 322.545 348.5 322.283 348.5C319.472 348.347 304 348.042 304 343.248Z" fill="white"/>
<path d="M364.342 289.879C359.265 289.9 354.318 291.535 350.199 294.52C341.482 301.319 335.315 310.821 334.487 321.935C334.116 326.01 334.116 330.085 334.487 334.16C335.119 339.63 337.407 344.795 341.025 348.935C342.899 351.027 344.925 352.967 347.105 354.732C349.436 356.737 352.008 358.415 354.775 359.766C358.001 361.357 361.531 362.185 365.105 362.228C367.284 362.228 368.984 359.766 369.986 358.088C372.253 354.667 373.538 350.679 373.669 346.582C373.713 346.037 373.517 345.492 373.124 345.1C372.972 345.013 372.819 344.925 372.645 344.882C364.822 342.485 353.751 338.126 353.185 328.494V327.71C353.054 320.976 356.519 314.678 362.294 311.213C369.616 308.119 373.604 306.135 374.214 305.242C374.824 304.349 374.083 302.256 373.974 301.537C373.8 300.208 373.517 298.879 373.124 297.593C372.383 295.348 371.294 293.256 369.856 291.382C369.572 290.968 369.224 290.619 368.81 290.358C368.287 290.075 367.676 289.944 367.088 289.944C366.064 289.879 365.214 289.857 364.342 289.879Z" fill="white"/>
<path d="M489.67 324.201C489.67 324.201 495.096 316.508 495.554 315.767C497.406 312.891 499.084 309.905 500.762 306.92C501.002 306.571 501.176 306.201 501.285 305.787C501.328 305.46 501.328 305.111 501.285 304.784C501.503 301.319 501.198 297.854 500.348 294.498C499.956 292.929 498.975 291.556 497.602 290.685C495.532 289.769 493.113 290.314 491.675 292.058C491.522 292.254 491.391 292.472 491.26 292.69C490.65 294.433 490.236 296.22 489.997 298.051C488.035 304.588 483.197 309.731 478.054 313.937C478.294 313.763 478.185 311.91 478.207 311.518L478.381 308.685C478.381 306.746 478.534 304.806 478.381 302.845C478.425 299.14 477.815 295.435 476.573 291.949C476.529 291.774 476.42 291.644 476.268 291.556C476.137 291.513 476.006 291.513 475.875 291.556L470.776 292.45C469.294 292.537 467.812 292.842 466.417 293.343C465.807 293.736 465.328 294.302 465.045 294.956C464.456 296.481 463.999 298.029 463.65 299.62C462.974 301.799 462.386 304.087 461.863 306.353C460.817 310.821 460.054 315.353 459.553 319.908C458.616 329.431 458.18 338.976 458.245 348.543V349.218C458.267 352.574 459.88 355.691 462.604 357.652C466.287 360.485 470.776 362.054 475.418 362.141C475.614 362.185 475.81 362.185 476.006 362.141C476.246 362.054 476.442 361.923 476.616 361.749C478.185 360.376 477.989 358.545 477.989 356.628V333.681C477.989 333.964 478.839 334.77 479.013 335.054C479.471 335.685 479.907 336.339 480.386 336.971C481.585 338.78 482.674 340.611 483.764 342.485C485.704 345.775 487.512 349.131 489.256 352.487C490.193 354.231 491.13 355.974 492.11 357.717C492.655 358.72 493.483 361.03 494.573 361.553C495.662 362.076 496.578 361.444 497.406 361.291C499.258 361.226 501.023 360.441 502.331 359.112C503.551 356.955 503.943 354.449 503.464 352.03C503.246 349.436 503.203 346.778 502.876 344.206C502.592 342.289 501.982 340.436 501.111 338.693C498.539 333.79 495.139 329.388 491.086 325.618L489.67 324.201Z" fill="white"/>
<path d="M550.687 303.935C551.231 303.782 551.689 303.477 552.06 303.041C552.757 301.886 553.215 300.622 553.432 299.293C553.956 297.353 554.195 295.327 554.152 293.322C554.195 292.145 553.629 291.034 552.648 290.402C551.972 290.118 551.21 289.988 550.469 290.075C545.478 290.075 540.575 290.925 535.628 291.252C531.27 291.622 526.911 292.363 522.553 293.126C521.877 293.169 521.224 293.409 520.679 293.823C520.287 294.281 520.025 294.847 519.894 295.436C518.739 299.293 517.672 303.194 516.691 307.116C515.732 310.973 514.991 314.874 514.512 318.819C513.444 328.734 512.943 338.693 513.008 348.674V349.349C513.008 358.524 524.035 362.141 531.64 362.316H541.621C544.955 362.316 548.159 362.425 551.471 362.141C552.169 362.141 552.866 361.923 553.476 361.553C554.435 360.877 554.108 359.853 553.955 358.807C553.738 357.325 553.498 355.843 553.258 354.449C553.127 353.49 552.975 352.531 552.822 351.572C552.713 350.962 552.822 349.829 552.277 349.393C552.103 349.24 551.885 349.131 551.667 349.088C549.488 348.434 547.309 348.085 544.999 347.584C542.122 346.952 539.224 346.407 536.282 346.015C535.345 345.95 534.473 345.601 533.754 344.991C533.275 344.468 532.948 343.792 532.817 343.095C532.577 341.591 532.534 340.066 532.686 338.54V333.942C532.686 334.64 544.89 334.662 545.914 334.662H546.328C548.246 334.008 548.507 331.916 548.507 330.303C548.704 327.971 548.704 325.618 548.507 323.286C548.398 321.826 548.355 319.908 547.135 318.928C546.568 318.557 545.892 318.361 545.217 318.383C544.105 318.383 532.665 318.383 532.665 319.189C532.512 316.116 532.512 313.044 532.665 309.971C532.708 309.492 532.861 309.034 533.079 308.598C533.536 307.923 534.234 307.443 535.018 307.225C538.941 306.027 542.972 305.177 547.047 304.719C548.268 304.545 549.488 304.283 550.687 303.935Z" fill="white"/>
<path d="M185.887 440.571C184.449 441.552 182.771 442.097 181.049 442.14C172.114 442.14 170.785 430.482 170.785 423.966C170.785 417.799 171.003 403.067 181.398 403.067C182.988 403.024 184.536 403.459 185.887 404.287V408.166C184.645 407.164 183.119 406.597 181.528 406.51C175.383 406.51 174.511 415.445 174.511 422.506C174.511 426.864 174.511 438.697 181.267 438.697C182.967 438.632 184.623 438.043 185.974 436.997L185.887 440.571Z" fill="white"/>
<path d="M215.654 429.567C215.654 436.584 215.109 442.141 207.678 442.141C200.247 442.141 199.702 436.387 199.702 429.567V403.569H203.232V429.37C203.232 435.668 203.603 438.697 207.591 438.697C211.579 438.697 211.949 435.668 211.949 429.37V403.569H215.48L215.654 429.567Z" fill="white"/>
<path d="M230.996 441.574V403.569H234.941C240.389 403.569 245.227 404.07 245.227 413.462C245.227 420.828 242.655 423.399 235.442 423.399H234.505V441.574H230.996ZM234.527 420.109H235.9C240.846 420.109 241.435 418.3 241.587 413.397C241.587 408.145 240.171 406.728 235.224 406.728H234.505V420.109H234.527Z" fill="white"/>
<path d="M272.467 440.571C271.051 441.552 269.351 442.097 267.63 442.14C258.695 442.14 257.387 430.482 257.387 423.966C257.387 417.799 257.583 403.067 267.978 403.067C269.569 403.024 271.116 403.459 272.467 404.287V408.166C271.225 407.164 269.7 406.576 268.109 406.51C261.942 406.51 261.092 415.445 261.092 422.506C261.092 426.864 261.092 438.697 267.848 438.697C269.547 438.632 271.182 438.043 272.533 436.997L272.467 440.571Z" fill="white"/>
<path d="M301.844 441.573H298.052L296.635 433.75H288.572L287.199 441.573H283.429L290.882 403.503H294.216L301.844 441.573ZM296.091 430.677L293.541 416.164C293.083 413.592 292.887 410.955 292.582 408.384H292.386C292.037 410.955 291.776 413.592 291.383 416.164L289.182 430.677H296.091Z" fill="white"/>
<path d="M320.911 421.7L329.497 441.574H325.509L317.947 422.375V441.574H314.417V403.569H317.947V420.828L325.509 403.569H329.454L320.911 421.7Z" fill="white"/>
<path d="M354.362 406.707H345.841V420.152H354.035V423.378H345.841V438.305H354.275V441.574H342.311V403.569H354.275L354.362 406.707Z" fill="white"/>
<path d="M368.853 441.574V403.569H372.645C377.94 403.569 383.039 403.983 383.039 413.266C383.039 418.104 381.972 422.855 375.87 423.051L384.303 441.639H380.512L372.449 423.007V441.574H368.853ZM372.383 420.065H373.647C378.594 420.065 379.4 418.344 379.4 413.353C379.4 407.339 377.591 406.816 373.102 406.816H372.383V420.065Z" fill="white"/>
<path d="M406.357 424.968V441.573H402.805V424.902L395.44 403.503H399.231L403.023 416.338C403.524 417.994 403.917 419.716 404.483 421.416H404.679C405.028 419.651 405.29 417.842 405.791 416.12L409.517 403.503H413.396L406.357 424.968Z" fill="white"/>
<path d="M462.821 439.569C461.1 441.181 458.833 442.097 456.458 442.14C450.705 442.14 447.262 436.997 447.262 431.637C447.436 427.387 449.506 423.464 452.884 420.893L452.732 420.588C450.879 417.755 449.746 414.508 449.397 411.152C449.354 407.033 452.644 403.634 456.763 403.568C460.555 403.481 463.693 406.467 463.802 410.258C463.802 410.476 463.802 410.673 463.802 410.89C463.802 415.249 460.315 418.561 457.395 421.198L457.09 421.438L463.628 434.055L466.003 431.135L466.243 430.787L468.618 433.097L465.24 436.997L467.616 441.639H463.933L462.821 439.569ZM454.431 423.922C452.252 425.949 450.923 428.716 450.661 431.68C450.661 435.014 452.841 438.697 456.306 438.959C458.223 438.915 460.054 438.131 461.405 436.779L454.431 423.922ZM455.456 418.714C457.831 416.84 460.402 413.876 460.402 410.694C460.511 408.624 458.921 406.859 456.85 406.75C454.606 406.75 452.775 408.58 452.775 410.825V411.065C453.015 413.614 453.843 416.077 455.238 418.234L455.456 418.714Z" fill="white"/>
<path d="M224.764 496.948C223.325 497.928 221.647 498.473 219.926 498.517C210.991 498.517 209.662 486.858 209.662 480.342C209.662 474.175 209.88 459.444 220.275 459.444C221.865 459.4 223.413 459.836 224.764 460.664V464.543C223.522 463.541 221.996 462.974 220.405 462.887C214.26 462.887 213.388 471.822 213.388 478.882C213.388 483.241 213.388 495.074 220.166 495.074C221.865 495.008 223.5 494.42 224.851 493.374L224.764 496.948Z" fill="white"/>
<path d="M238.732 498.016V459.945H242.524C247.819 459.945 252.919 460.359 252.919 469.642C252.919 474.48 251.851 479.231 245.749 479.427L254.183 498.016H250.456L242.371 479.384H242.262V498.016H238.732ZM242.262 476.507H243.526C248.473 476.507 249.279 474.785 249.279 469.795C249.279 463.78 247.471 463.257 242.982 463.257H242.262V476.507Z" fill="white"/>
<path d="M279.353 463.366H270.942V476.79H279.114V480.016H270.942V494.943H279.353V498.234H267.39V459.945H279.353V463.366Z" fill="white"/>
<path d="M309.295 498.016H305.503L304.086 490.192H296.002L294.65 498.016H290.859L298.333 459.945H301.668L309.295 498.016ZM303.542 487.12L301.014 472.541C300.556 469.969 300.36 467.333 300.055 464.761H299.881C299.532 467.333 299.292 469.969 298.878 472.541L296.699 487.12H303.542Z" fill="white"/>
<path d="M345.841 498.015H342.354L339.761 469.903C339.761 468.683 339.608 467.528 339.565 466.308H339.303C338.998 468.836 338.889 471.32 338.432 473.848L334.291 497.972H331.415L327.296 469.903C327.1 468.683 326.991 467.528 326.838 466.308H326.686C326.751 468.814 326.62 471.298 326.337 473.782L323.308 497.972H319.886L325.226 459.901H328.211L332.57 488.231C332.766 489.495 332.875 490.758 333.027 492.022H333.18C333.419 489.843 333.572 487.664 333.942 485.485L338.301 459.879H341.286L345.841 498.015Z" fill="white"/>
<path d="M371.512 463.366H363.079V476.79H371.251V480.016H363.079V494.943H371.512V498.234H359.549V459.945H371.512V463.366Z" fill="white"/>
<path d="M386.025 498.016V459.945H389.817C395.112 459.945 400.211 460.359 400.211 469.642C400.211 474.48 399.165 479.231 393.042 479.427L401.475 498.016H397.749L389.664 479.384V498.016H386.025ZM389.577 476.507H390.819C395.766 476.507 396.572 474.785 396.572 469.795C396.572 463.78 394.763 463.257 390.274 463.257H389.577V476.507Z" fill="white"/>
<path d="M423.53 481.345V498.016H419.935V481.345L412.569 459.945H416.339L420.131 472.781C420.632 474.437 421.046 476.158 421.591 477.88H421.809C422.157 476.115 422.397 474.284 422.92 472.563L426.647 459.945H430.439L423.53 481.345Z" fill="white"/>
<path d="M617.763 355.582H615.976V362.795H614.973V355.582H613.187V354.58H617.785V355.582H617.763ZM625.063 362.795H624.061V355.604H624.017L622.187 362.795H621.489L619.681 355.604H619.637V362.795H618.635V354.58H620.356L621.816 360.376H621.86L623.385 354.58H625.063V362.795Z" fill="white"/>
<path d="M104.733 120.423C107 122.21 110.269 121.839 112.077 119.595C113.864 117.328 113.472 114.06 111.206 112.273C108.939 110.486 105.671 110.878 103.884 113.144C102.118 115.389 102.489 118.658 104.733 120.445V120.423Z" fill="#E32973"/>
<path d="M150.868 78.6695C153.745 78.6477 156.055 76.2942 156.033 73.4176C156.011 70.5411 153.657 68.2311 150.781 68.2529C147.904 68.2747 145.594 70.6282 145.616 73.5048C145.616 74.6816 146.03 75.8148 146.771 76.73C147.774 77.9722 149.277 78.6913 150.868 78.6695Z" fill="#E32973"/>
<path d="M128.226 98.9367C131.124 98.9367 133.478 96.6267 133.478 93.7283C133.478 90.83 131.168 88.4764 128.269 88.4764C125.371 88.4764 123.017 90.7864 123.017 93.6848C123.017 95.0795 123.562 96.4088 124.543 97.3894C125.523 98.3701 126.831 98.9367 128.226 98.9367Z" fill="#E32973"/>
<path d="M228.513 24.5816C225.789 25.5622 224.373 28.5478 225.353 31.2718C226.094 33.342 228.034 34.7367 230.235 34.7367C230.823 34.7367 231.411 34.6278 231.956 34.4316C234.68 33.4728 236.119 30.5091 235.16 27.785C234.201 25.061 231.237 23.6227 228.513 24.5816Z" fill="#E32973"/>
<path d="M199.835 36.4586C197.263 37.7443 196.217 40.8824 197.503 43.4538C198.789 46.0253 201.927 47.0713 204.498 45.7856C207.026 44.5216 208.094 41.4707 206.874 38.8993C205.675 36.306 202.624 35.1728 200.031 36.3714C199.965 36.3932 199.9 36.4368 199.835 36.4586Z" fill="#E32973"/>
<path d="M175.601 61.0835C178.499 61.0835 180.853 58.7735 180.875 55.897C180.896 53.0204 178.565 50.6451 175.688 50.6233C174.686 50.6233 173.683 50.9066 172.833 51.4514C170.393 52.9768 169.63 56.1803 171.155 58.621C172.114 60.1682 173.814 61.1053 175.623 61.0835H175.601Z" fill="#E32973"/>
<path d="M54.5247 229.907C57.3359 230.56 60.1471 228.795 60.8009 225.984C61.4546 223.173 59.6895 220.362 56.8783 219.708C54.0671 219.054 51.2559 220.819 50.6021 223.631C49.9484 226.442 51.6918 229.231 54.5029 229.885C54.5029 229.885 54.5029 229.885 54.5247 229.885V229.907Z" fill="#E32973"/>
<path d="M258.28 16.0394C255.469 16.6278 253.661 19.3736 254.227 22.1848C254.728 24.6473 256.929 26.3907 259.435 26.3471C259.828 26.3471 260.22 26.3035 260.59 26.2164C263.402 25.5844 265.167 22.7732 264.535 19.9838C263.903 17.1726 261.092 15.4075 258.28 16.0394Z" fill="#E32973"/>
<path d="M50.0342 259.937H50.6226C53.5645 259.784 55.8091 257.256 55.6348 254.336C55.4822 251.394 52.9543 249.15 50.0342 249.324C47.114 249.499 44.8477 252.005 45.022 254.925C45.1745 257.627 47.332 259.784 50.0342 259.937Z" fill="#E32973"/>
<path d="M578.624 226.05C579.169 228.425 581.261 230.103 583.702 230.103C584.094 230.103 584.486 230.059 584.879 229.972C587.69 229.34 589.455 226.529 588.823 223.718C588.191 220.907 585.38 219.142 582.569 219.774C579.758 220.405 577.992 223.217 578.624 226.028V226.05Z" fill="#E32973"/>
<path d="M583.593 255.404C583.876 258.062 586.121 260.067 588.78 260.067H589.346C592.223 259.762 594.293 257.19 593.988 254.314C593.683 251.437 591.111 249.367 588.235 249.672C585.358 249.977 583.288 252.549 583.593 255.425C583.593 255.425 583.593 255.425 583.593 255.447V255.404Z" fill="#E32973"/>
<path d="M575.312 200.901C575.9 200.901 576.489 200.814 577.034 200.618C579.779 199.681 581.239 196.695 580.302 193.95C579.365 191.204 576.38 189.744 573.634 190.681C570.888 191.618 569.428 194.603 570.365 197.349C571.084 199.463 573.067 200.901 575.312 200.901Z" fill="#E32973"/>
<path d="M77.9718 162.918C75.3786 161.654 72.2405 162.744 70.9766 165.359C69.7126 167.952 70.8022 171.09 73.4173 172.354C74.1582 172.703 74.9645 172.899 75.7926 172.877C78.691 172.834 80.9792 170.437 80.9138 167.56C80.8702 165.599 79.737 163.812 77.9718 162.94V162.918Z" fill="#E32973"/>
<path d="M87.6265 145.484C90.0672 147.01 93.2707 146.269 94.7961 143.85C96.3215 141.409 95.5806 138.206 93.1617 136.68C90.721 135.155 87.5175 135.874 85.9921 138.314C84.4448 140.712 85.1422 143.915 87.5393 145.462C87.5611 145.462 87.6047 145.506 87.6265 145.506V145.484Z" fill="#E32973"/>
<path d="M65.813 190.725C63.089 189.766 60.1253 191.182 59.1664 193.906C58.2076 196.63 59.6241 199.594 62.3481 200.553C62.9147 200.771 63.5031 200.858 64.0915 200.858C66.968 200.858 69.3216 198.548 69.3216 195.671C69.3216 193.449 67.9269 191.444 65.813 190.725Z" fill="#E32973"/>
<path d="M531.379 121.534C534.277 121.534 536.609 119.181 536.587 116.283C536.587 113.384 534.234 111.052 531.335 111.074C528.437 111.074 526.105 113.428 526.127 116.326C526.127 117.503 526.541 118.658 527.282 119.573C528.285 120.815 529.788 121.534 531.379 121.534Z" fill="#E32973"/>
<path d="M548.965 146.29C551.864 146.247 554.152 143.871 554.108 140.973C554.108 140.014 553.825 139.099 553.324 138.293C551.776 135.874 548.573 135.133 546.132 136.68C543.713 138.227 542.972 141.431 544.52 143.871C545.478 145.397 547.156 146.312 548.965 146.29Z" fill="#E32973"/>
<path d="M511.134 98.9144C512.529 98.9144 513.836 98.3478 514.817 97.3672C516.844 95.3187 516.844 92.0499 514.817 90.0014C512.768 87.953 509.456 87.9748 507.429 90.0014C505.381 92.0499 505.403 95.3623 507.429 97.3889C508.41 98.3696 509.739 98.9144 511.134 98.9144Z" fill="#E32973"/>
<path d="M466.548 51.4514C464.107 49.9259 460.904 50.6669 459.378 53.0858C457.853 55.5265 458.594 58.73 461.013 60.2554C463.453 61.7809 466.657 61.0617 468.182 58.621C469.708 56.1803 468.967 52.9768 466.548 51.4296V51.4514Z" fill="#E32973"/>
<path d="M485.311 77.5151C487.534 79.3238 490.802 78.9752 492.611 76.7524C492.611 76.7524 492.611 76.7306 492.633 76.7088C494.442 74.4642 494.071 71.1954 491.827 69.3866C489.582 67.5779 486.313 67.9483 484.504 70.1929C482.696 72.4375 483.066 75.7063 485.311 77.5151Z" fill="#E32973"/>
<path d="M561.41 162.918C558.816 164.182 557.727 167.298 558.991 169.913C559.863 171.722 561.693 172.877 563.698 172.855C564.461 172.855 565.202 172.659 565.877 172.332C568.449 171.025 569.473 167.865 568.165 165.293C566.901 162.787 563.872 161.741 561.323 162.918H561.41Z" fill="#E32973"/>
<path d="M350.657 10.8961C347.802 10.5693 345.209 12.6395 344.882 15.5161C344.555 18.3708 346.625 20.9641 349.502 21.291H350.09C352.989 21.2256 355.277 18.8503 355.211 15.9519C355.168 13.3586 353.228 11.2012 350.657 10.8743V10.9179V10.8961Z" fill="#E32973"/>
<path d="M381.188 16.0388C378.377 15.385 375.566 17.1502 374.912 19.9614C374.258 22.7726 376.023 25.5837 378.835 26.2375C381.646 26.8913 384.457 25.1261 385.111 22.3149C385.764 19.5037 384.021 16.7144 381.21 16.0606C381.21 16.0606 381.21 16.0606 381.188 16.0606V16.0388Z" fill="#E32973"/>
<path d="M288.789 10.8749C285.934 11.2454 283.908 13.8604 284.278 16.737C284.605 19.3084 286.762 21.2479 289.356 21.2915H289.944C292.821 21.03 294.934 18.4585 294.651 15.582C294.39 12.7054 291.818 10.5916 288.942 10.8749C288.876 10.8749 288.833 10.8749 288.767 10.8749H288.789Z" fill="#E32973"/>
<path d="M439.547 36.4586C436.954 35.2164 433.838 36.2842 432.595 38.8775C431.353 41.4708 432.421 44.5871 435.014 45.8292C435.69 46.1779 436.431 46.3522 437.194 46.3522C439.199 46.3522 441.029 45.219 441.879 43.4103C443.165 40.8388 442.119 37.7225 439.547 36.4368V36.4586Z" fill="#E32973"/>
<path d="M410.912 24.6034C408.166 23.6446 405.181 25.1046 404.222 27.8504C403.263 30.5962 404.723 33.5818 407.469 34.5406C408.014 34.7367 408.602 34.8457 409.19 34.8457C412.089 34.8457 414.399 32.4704 414.377 29.572C414.377 27.371 412.982 25.4315 410.912 24.6906V24.6034Z" fill="#E32973"/>
<path d="M590.501 279.746C587.602 279.746 585.271 282.078 585.249 284.954C585.249 287.395 586.927 289.531 589.324 290.075C589.716 290.163 590.108 290.184 590.501 290.184C593.355 290.206 595.687 287.918 595.709 285.063C595.709 285.041 595.709 285.02 595.709 284.998C595.709 282.1 593.399 279.768 590.501 279.746Z" fill="#E32973"/>
<path d="M48.8792 290.532C51.7558 290.729 54.2401 288.527 54.4362 285.651C54.6324 282.774 52.4314 280.29 49.5548 280.094C49.3369 280.094 49.0972 280.094 48.8792 280.094C45.9809 280.138 43.6927 282.513 43.7145 285.389C43.7581 287.765 45.3925 289.813 47.7025 290.402C48.0947 290.489 48.487 290.532 48.8792 290.532Z" fill="#E32973"/>
<path d="M318.36 19.4383C318.753 19.4819 319.123 19.4819 319.515 19.4383C322.305 19.1114 324.331 16.5835 324.005 13.7941C323.678 11.0047 321.15 8.97808 318.36 9.30496C315.571 9.63184 313.544 12.1597 313.871 14.9491C314.133 17.3027 316.007 19.1768 318.36 19.4383Z" fill="#E32973"/>
<path d="M250.783 192.49C242.481 194.953 233.764 195.716 225.156 194.713C219.272 194.19 213.846 191.357 210.054 186.824C203.756 178.652 206.022 167.103 211.47 159.868C214.129 156.49 217.289 153.526 220.863 151.129C220.144 150.867 219.446 150.562 218.771 150.235C215.698 148.884 213.323 146.335 212.19 143.153L212.124 142.935L212.059 142.717C211.492 139.862 211.863 136.899 213.127 134.262C217.049 124.651 223.173 116.109 231.018 109.31L231.192 109.266C235.05 106.302 235.703 105.867 236.096 105.627L237.272 104.93C238.515 104.123 239.822 103.404 241.173 102.816L251.786 98.4137L246.665 108.634C245.946 109.942 245.118 111.206 244.18 112.382C243.505 113.254 242.917 114.191 242.415 115.172C241.87 116.131 241.805 117.286 242.263 118.288C242.459 118.528 243.091 119.182 245.575 118.441C248.757 117.504 252.679 114.91 256.275 112.557C258.563 110.901 260.982 109.484 263.554 108.307C264.578 107.872 265.624 107.479 266.692 107.174C272.881 105.344 279.484 105.627 285.498 107.98C289.399 109.528 292.559 112.47 294.39 116.24L294.455 116.436C296.068 120.424 296.046 124.869 294.368 128.836C293.823 130.099 293.191 131.342 292.494 132.54L293.736 131.799C296.067 130.187 298.617 128.879 301.298 127.942C302.344 127.615 303.455 127.441 304.545 127.419C308.467 127.463 312.128 129.424 314.329 132.671C319.995 140.146 319.865 150.693 313.872 160.739C308.119 170.437 299.511 174.664 291.099 177.802C288.462 178.805 285.825 179.742 283.188 180.701L280.246 181.769C272.881 184.405 265.82 186.977 259.021 189.679C256.558 190.682 254.052 191.575 251.524 192.316L250.805 192.49H250.783Z" fill="#E32973"/>
<path d="M311.802 134.306C310.168 131.909 307.487 130.47 304.589 130.427C301.669 130.492 298.814 132.127 295.284 134.349L293.453 135.461C292.843 135.809 291.448 136.746 289.705 137.967C287.526 139.427 283.865 141.933 281.141 143.611L282.296 141.977C285.565 137.596 289.988 131.56 291.514 127.637C292.865 124.412 292.909 120.773 291.601 117.526C290.119 114.431 287.526 112.034 284.344 110.77C278.024 108.286 271.007 108.373 264.753 111.01C262.356 112.121 260.09 113.472 257.954 115.02C251.634 119.16 243.767 124.325 239.997 120.337C238.428 118.681 238.668 115.848 239.67 113.756C240.281 112.579 241.021 111.468 241.871 110.443C242.678 109.419 243.397 108.33 244.029 107.196L245.511 104.254L242.46 105.518C241.218 106.063 240.019 106.717 238.886 107.48L237.774 108.155C237.404 108.373 236.358 109.136 233.111 111.62C225.614 118.114 219.752 126.308 216.026 135.504C215.023 137.596 214.718 139.972 215.198 142.26C216.048 144.657 217.878 146.597 220.21 147.599C223.37 149.168 226.966 149.735 230.452 149.212L226.29 151.674L223.98 152.938C220.145 155.292 216.767 158.299 213.999 161.851C209.227 168.149 207.2 178.152 212.496 185.103C215.808 189.026 220.537 191.488 225.658 191.924C234.113 192.905 242.656 192.12 250.784 189.592C253.225 188.873 255.644 188.023 258.019 187.043C265.015 184.188 272.271 181.573 279.332 179.023C282.928 177.737 286.523 176.43 290.119 175.101C298.03 172.137 306.071 168.192 311.366 159.301C316.662 150.41 316.88 140.952 311.868 134.371L311.802 134.306Z" fill="white"/>
<path d="M318.426 171.984C318.099 171.679 317.641 171.57 317.206 171.701L312.912 172.964C312.498 173.095 312.172 173.422 312.063 173.858C311.997 174.119 304.893 202.733 301.101 211.733C299.728 215.001 297.07 218.445 287.329 221.343C287.154 221.387 269.546 226.617 257.8 231.193L257.059 231.411C253.856 232.718 250.522 234.07 244.594 226.573C237.708 217.813 222.497 200.444 222.344 200.292C222.039 199.921 221.538 199.769 221.08 199.921L217.463 200.989C216.809 201.185 216.461 201.861 216.635 202.493C216.678 202.645 216.744 202.776 216.831 202.907L244.137 237.491C244.594 238.167 246.926 241.108 253.681 239.104L254.226 238.951L259.282 237.273C267.977 234.375 282.578 229.493 300.12 224.677C300.338 224.612 305.372 223.588 306.832 216.767C308.096 210.752 318.535 173.553 318.622 173.182C318.775 172.768 318.687 172.311 318.426 171.984Z" fill="#F19EBD"/>
<path d="M258.28 217.77C257.67 216.419 256.733 214.174 255.752 211.82C254.096 207.462 252.178 203.213 249.999 199.094C249.105 197.656 246.556 197.612 245.117 198.549C243.679 199.66 243.33 201.665 244.311 203.191C244.66 203.953 245.074 204.912 245.597 206.067C247.711 211.276 250.239 216.31 253.137 221.126C253.9 222.215 255.273 222.673 256.515 222.259C258.084 221.823 258.999 220.21 258.563 218.641C258.52 218.336 258.411 218.053 258.28 217.791V217.77Z" fill="#F19EBD"/>
<path d="M274.645 187.958C273.294 187.849 272.008 188.524 271.332 189.679C268.151 198.44 269.981 218.118 270.068 218.968C270.112 219.338 270.308 219.687 270.613 219.905C270.875 220.101 271.223 220.167 271.529 220.079L273.969 219.186C274.231 219.077 274.427 218.859 274.558 218.597C275.495 216.244 276.061 206.35 275.691 189.418C275.691 188.764 275.277 188.154 274.667 187.936L274.645 187.958Z" fill="#F19EBD"/>
<path d="M299.053 181.725C298.464 180.505 297.331 179.633 296.002 179.372C295.501 179.306 295.021 179.568 294.803 180.004C292.581 183.033 287.786 203.583 288.68 210.6C288.832 211.602 289.66 212.387 290.663 212.474C290.946 212.539 291.23 212.539 291.513 212.517C292.101 212.452 292.581 211.994 292.668 211.384C294.171 204.236 297.506 190.093 299.162 183.861C299.358 183.164 299.314 182.401 299.009 181.747L299.053 181.725Z" fill="#F19EBD"/>
<path d="M373.713 131.625C361.924 128.727 353.468 124.281 348.587 118.375C346.865 116.806 342.006 111.99 341.047 106.433C340.023 98.2396 346.19 91.2007 352.815 88.4331C355.778 87.2563 358.851 86.5372 361.989 86.2539C361.749 85.9488 361.51 85.6219 361.292 85.2732C359.788 83.2248 359.134 80.4572 359.614 77.7985L359.657 77.5806L359.723 77.3845C360.485 75.1617 361.967 73.2222 363.907 71.8929C370.335 66.9461 377.941 63.5465 385.917 62.0428H386.091C387.203 61.8685 388.052 61.7595 388.706 61.6724C389.97 61.498 390.58 61.4109 391.125 61.4762H391.931C393.021 61.4327 394.22 61.4762 395.375 61.5852L405.094 62.9581L396.922 68.4497L396.856 68.4933C395.854 69.0817 394.808 69.6047 393.74 70.0188C392.912 70.3238 392.193 70.6725 391.496 71.1084C390.776 71.5224 390.406 72.1762 390.384 72.8735C390.58 73.2876 391.169 73.6144 392.193 73.8542C394.59 74.4426 398.186 74.2464 401.367 74.0939H401.673C403.765 73.8977 405.987 73.8977 408.188 74.0939C409.147 74.2246 409.975 74.3772 410.782 74.5733C415.728 75.7937 420.196 78.6484 423.356 82.6364C425.426 85.3168 426.407 88.6292 426.123 91.9634V92.1378C425.6 95.5591 423.791 98.61 421.024 100.68L420.85 100.789C420.37 101.094 419.891 101.399 419.411 101.683C421.46 101.487 423.508 101.617 425.513 102.119C426.363 102.336 427.191 102.598 428.019 102.925L428.215 103.012L428.411 103.121C431.07 104.734 432.813 107.545 433.053 110.639C433.947 118.114 429.719 125.284 421.721 129.795C417.297 132.192 400.779 137.313 377.222 132.41C376.001 132.148 374.846 131.887 373.713 131.625Z" fill="#E32973"/>
<path d="M430.308 110.922C430.156 108.678 428.914 106.651 426.974 105.474C424.512 104.472 421.853 104.123 419.216 104.472H417.56C417.015 104.472 415.708 104.581 414.051 104.69C412.025 104.821 408.582 105.06 406.076 105.126L407.536 104.494C411.676 102.903 415.642 100.876 419.369 98.5009C421.548 96.8665 422.986 94.4258 423.379 91.7453C423.596 89.0867 422.812 86.4499 421.199 84.336C417.93 80.1955 413.158 77.5151 407.928 76.8177C405.901 76.6434 403.853 76.6434 401.804 76.8177C395.942 77.1228 388.62 77.5805 387.639 73.3528C387.465 71.5005 388.38 69.7353 389.993 68.7982C390.843 68.2534 391.758 67.8176 392.695 67.4689C393.632 67.0984 394.548 66.6626 395.419 66.1396L397.598 64.6795L395.071 64.3091C394.024 64.2001 392.957 64.1783 391.911 64.2219H390.886C390.56 64.1565 389.535 64.3526 386.375 64.7449C378.77 66.1832 371.6 69.3866 365.477 74.1373C363.973 75.1397 362.862 76.5998 362.273 78.2996C361.925 80.2391 362.382 82.2222 363.537 83.7912C365.063 86.1012 367.242 87.8881 369.813 88.8906H366.043H364.039C360.53 88.9777 357.087 89.6751 353.818 90.9608C348.152 93.3362 342.857 99.2418 343.706 105.976C344.382 109.898 347.738 114.017 350.527 116.501C352.554 119.007 358.874 125.85 377.724 129.751C400.388 134.458 416.427 129.533 420.306 127.419C427.279 123.475 431.028 117.286 430.243 110.922H430.308Z" fill="white"/>
<path d="M409.67 139.906C408.842 138.119 407.229 136.833 405.29 136.462C404.396 136.244 403.481 136.157 402.566 136.201C401.629 136.244 400.692 136.353 399.755 136.528C399.079 136.68 398.382 136.768 397.685 136.811C395.658 136.876 393.675 136.855 391.561 136.768C386.81 136.462 382.081 135.939 377.396 135.155C374.585 134.719 371.621 134.24 368.701 133.52C367.655 133.259 366.631 133.019 365.606 132.671C363.536 132.017 361.51 131.167 359.614 130.099C358.655 129.554 357.761 128.966 356.89 128.29L356.301 127.767C355.408 126.852 354.318 126.177 353.098 125.828C351.768 125.479 350.352 125.741 349.241 126.569C347.236 128.072 346.865 130.927 346.778 133.346C346.408 137.029 337.625 224.415 342.812 250.435C343.313 252.397 344.904 253.878 346.887 254.249C349.023 254.837 351.311 254.249 352.88 252.68C363.449 241.413 401.956 159.715 406.358 150.344C406.467 149.93 406.837 149.429 407.186 148.797C409.234 145.027 410.607 142.194 409.67 139.906ZM399.907 157.819L398.731 156.686L401.084 155.269C400.714 156.184 400.343 156.947 399.907 157.819ZM391.321 175.732L389.512 173.814C390.624 173.182 392.781 171.962 393.282 171.657L391.321 175.732ZM356.628 242.655L354.492 240.52L359.57 237.643C358.568 239.496 357.522 241.152 356.628 242.655ZM360.071 236.772L353.926 239.931L348.718 234.658C354.776 231.454 360.987 228.098 366.805 224.546C364.408 229.014 362.142 233.176 360.071 236.793V236.772ZM367.306 223.609C363.602 225.745 359.832 227.771 356.04 229.798C354.013 230.866 350.853 232.522 348.107 233.851L344.642 230.256L344.01 229.602H343.902L343.945 229.384C343.923 227.227 343.923 224.938 343.945 222.607L344.316 222.389L347.127 220.645L347.563 221.103C349.132 222.912 350.875 224.699 352.597 226.442C352.858 226.725 353.272 226.355 353.076 226.05C351.594 223.958 350.09 221.909 348.391 219.861C349.916 218.967 352.03 217.682 350.548 217.66C349.611 218.096 348.674 218.575 347.759 218.989L344.359 214.74C344.207 214.609 344.207 214.478 344.076 214.5C344.119 213.214 344.141 211.907 344.207 210.534C344.359 210.425 344.512 210.338 344.686 210.251C345.601 209.815 346.517 209.314 347.388 208.921C351.18 212.909 355.103 216.723 359.221 220.34C357.217 221.19 355.146 221.888 353.032 222.432C352.836 222.454 352.706 222.628 352.727 222.825C352.771 223.021 352.945 223.13 353.141 223.108C355.146 222.694 357.108 222.127 359.025 221.386L359.962 220.994C360.725 221.67 361.444 222.345 362.229 222.999C362.447 223.173 362.73 222.825 362.512 222.65L360.529 220.754C364.517 219.098 368.352 217.093 371.992 214.762C370.314 217.834 368.766 220.82 367.263 223.653H367.306V223.609ZM343.902 230.474L344.991 231.65L347.388 234.244L344.708 235.595L344.076 235.9C343.967 234.178 343.902 232.37 343.858 230.495H343.902V230.474ZM344.25 205.587L346.56 208.159L344.119 209.117C344.119 207.919 344.163 206.764 344.207 205.587H344.25ZM344.642 196.609C344.708 195.345 344.773 194.081 344.839 192.817L347.519 195.715C346.582 196.064 345.623 196.369 344.664 196.587H344.642V196.609ZM343.923 217.05L346.277 219.621L343.967 220.885C343.902 219.643 343.88 218.357 343.88 217.05H343.923ZM373.212 212.234C369.006 215.306 364.473 217.9 359.723 220.035C355.8 216.287 352.052 212.364 348.478 208.267C350.025 207.418 351.551 206.568 353.12 205.652C353.207 205.587 353.229 205.478 353.185 205.369C353.12 205.282 353.011 205.238 352.902 205.304C351.267 206.132 349.611 206.895 347.933 207.614C346.735 206.241 345.558 204.846 344.403 203.451L344.621 198.374C344.773 198.396 344.926 198.396 345.056 198.374C346.255 197.96 347.41 197.437 348.521 196.827C353.425 201.882 358.589 206.677 363.885 211.34C361.858 212.146 359.81 212.866 357.696 213.454C356.388 214.892 360.987 213.41 364.691 212.038H364.822C365.04 212.277 365.345 211.994 365.258 211.776C367.11 211.079 368.636 210.447 368.875 210.316C371.338 209.248 373.713 208.028 376.067 206.742C375.021 208.638 374.084 210.49 373.256 212.299H373.212V212.234ZM377.178 204.258C373.125 206.873 368.832 209.117 364.386 210.991C359.309 206.197 354.362 201.25 349.698 196.042C351.071 195.236 352.422 194.342 353.73 193.449C353.861 193.362 353.882 193.187 353.817 193.057C353.73 192.926 353.555 192.882 353.403 192.948C351.965 193.71 350.439 194.473 348.87 195.127C347.497 193.601 346.146 192.032 344.86 190.442C345.078 186.497 345.34 182.553 345.58 178.826C351.551 185.451 357.674 191.945 364.19 198.047L358.35 200.945C358.154 201.032 358.066 201.272 358.175 201.468C358.263 201.664 358.502 201.752 358.698 201.643L364.931 198.723C366.173 199.878 367.415 201.054 368.701 202.187C368.854 202.296 369.071 202.253 369.18 202.1C369.268 201.97 369.268 201.773 369.137 201.664C367.982 200.575 366.87 199.442 365.737 198.33C372.101 195.345 378.442 192.294 384.696 188.981C382.212 194.168 379.684 199.289 377.178 204.258ZM386.026 186.41C383.89 184.645 381.951 182.662 380.229 180.483C379.88 180.003 379.118 180.526 379.444 181.027C380.839 183.337 382.43 185.538 384.239 187.543C377.963 191.052 371.534 194.342 365.105 197.568C358.306 190.812 351.986 183.577 345.797 176.277C346.124 171.504 346.473 166.928 346.822 162.657C349.284 165.49 351.834 168.235 354.449 170.938L353.534 171.373C352.727 172.463 353.599 172.398 355.233 171.787C357.129 173.705 359.025 175.579 360.965 177.453L355.168 181.027C354.601 181.354 355.124 182.182 355.647 181.877L361.836 178.369C363.95 180.417 366.108 182.422 368.352 184.449L360.965 188.938C360.725 189.069 360.638 189.352 360.747 189.592C360.878 189.831 361.161 189.919 361.401 189.81L369.268 185.32L372.841 188.589C373.038 188.764 373.343 188.764 373.539 188.567C373.713 188.371 373.713 188.066 373.517 187.87L370.292 184.688L388.14 174.511L390.253 177.562C388.946 180.526 387.529 183.533 386.047 186.563V186.388L386.026 186.41ZM364.757 135.177C365.824 135.547 366.914 135.83 368.004 136.092L368.57 136.223C369.529 137.639 370.51 139.012 371.556 140.385C369.551 142.216 367.437 143.937 365.258 145.593C363.471 143.153 361.706 140.625 360.006 138.075C361.771 136.855 363.275 135.765 364.299 135.002C364.451 135.068 364.626 135.111 364.778 135.155H364.735L364.757 135.177ZM383.563 138.685C383.846 139.317 384.13 139.949 384.435 140.516C384.74 141.082 385.045 141.649 385.372 142.194C383.149 143.828 380.905 145.441 378.638 147.032C377.113 145.092 375.762 143.174 374.389 141.191C375.631 140.145 376.917 139.077 377.984 137.922C379.967 138.228 381.842 138.489 383.607 138.707H383.563V138.685ZM395.963 139.492C396.486 140.385 397.27 141.54 398.164 142.76C395.832 144.526 393.479 146.291 391.125 148.034C390.035 146.574 389.033 145.07 388.096 143.479C390.035 142.15 391.997 140.843 393.936 139.47C394.655 139.513 395.331 139.492 395.985 139.492H395.941H395.963ZM402.827 151.477C400.953 152.719 399.079 153.896 397.183 155.116C395.483 153.351 393.871 151.477 392.345 149.559C394.764 147.881 397.161 146.204 399.58 144.482C401.237 146.639 402.936 148.71 403.808 149.69C403.416 150.279 403.111 150.889 402.849 151.499H402.806L402.827 151.477ZM347.018 159.301C347.083 158.625 347.127 157.971 347.192 157.339C349.742 156.424 352.226 155.313 354.601 154.027L359.614 159.606C357.936 160.652 356.258 161.719 354.558 162.744C354.318 162.874 354.231 163.18 354.362 163.397C354.492 163.637 354.798 163.724 355.016 163.594C356.846 162.591 358.633 161.545 360.442 160.521C362.033 162.199 363.493 163.812 365.04 165.424C362.163 167.08 359.243 168.606 356.236 170.044C353.076 166.579 350.134 163.158 347.301 159.54C347.236 159.431 347.127 159.344 347.018 159.279H346.974L347.018 159.301ZM364.8 148.274C366.217 150.061 367.655 151.804 369.137 153.526C366.478 155.269 363.841 156.991 361.139 158.69C359.962 157.317 358.132 155.247 356.345 153.155C359.81 151.368 362.861 149.603 363.166 149.32C363.471 149.036 364.277 148.622 364.866 148.296H364.8V148.274ZM386.636 144.46C387.617 146.029 388.663 147.533 389.796 149.015L383.781 153.373C382.495 151.869 381.231 150.344 379.989 148.797C382.234 147.358 384.478 145.942 386.658 144.46H386.614H386.636ZM382.8 154.092C380.469 155.727 378.137 157.317 375.783 158.887C374.367 157.296 373.016 155.661 371.665 154.027C372.689 153.395 373.757 152.807 374.759 152.153C375.762 151.499 377.418 150.453 378.769 149.603C380.164 151.194 381.449 152.632 382.822 154.114H382.779L382.8 154.092ZM366.5 164.683C364.909 163.005 363.514 161.371 362.054 159.584C364.822 158.015 367.59 156.38 370.314 154.724C371.73 156.359 373.212 157.949 374.672 159.518C371.992 161.349 369.268 163.071 366.522 164.683H366.478H366.5ZM370.532 152.61C369.115 150.845 367.764 149.08 366.391 147.25C368.745 145.833 370.837 144.09 372.929 142.368C374.367 144.264 375.827 146.138 377.352 147.947C375.13 149.516 372.863 151.085 370.575 152.61H370.532ZM365.999 166.448L367.35 167.887C368.548 169.107 369.791 170.262 370.989 171.461L362.359 176.669C360.594 174.817 358.851 172.942 357.129 171.047C360.093 169.717 363.928 167.647 366.042 166.47H365.999V166.448ZM367.393 165.686L367.524 165.598C370.27 164.008 372.972 162.351 375.674 160.673C377.265 162.33 378.878 163.964 380.643 165.555C377.788 167.32 374.934 169.063 372.079 170.807C370.532 169.107 368.962 167.429 367.437 165.707H367.393V165.686ZM381.558 165.01C379.946 163.397 378.377 161.698 376.786 159.998C379.161 158.451 381.558 156.86 383.955 155.269C385.067 156.402 386.156 157.579 387.29 158.647C387.486 158.843 387.791 158.843 387.987 158.647C388.183 158.451 388.183 158.146 387.987 157.949C386.941 156.86 385.96 155.727 384.936 154.615C386.963 153.242 388.946 151.869 390.951 150.475C392.52 152.371 394.198 154.158 395.985 155.836C391.234 158.93 386.44 162.003 381.58 165.01H381.558ZM386.832 141.17C386.418 140.45 386.069 139.709 385.742 138.903C386.941 139.034 388.14 139.143 389.338 139.23L386.81 141.17H386.832ZM372.994 139.121L371.578 136.768C372.624 137.029 373.67 137.16 374.716 137.312C374.105 137.988 373.561 138.554 372.994 139.121ZM363.645 146.835C360.987 148.731 358.263 150.497 355.43 152.131C353.861 150.322 352.444 148.688 351.616 147.685L349.982 145.746C349.655 145.397 349.393 145.005 349.044 144.656C352.248 143.283 355.277 141.562 358.088 139.535C359.919 141.976 361.771 144.395 363.667 146.792V146.857L363.645 146.835ZM348.456 146.988L350.112 148.928C351.289 150.322 352.488 151.695 353.708 153.068C351.638 154.201 349.48 155.247 347.323 156.25C347.606 152.719 347.889 149.494 348.151 146.639L348.434 146.988H348.456ZM395.592 166.971C394.307 165.577 393.108 164.117 392.04 162.548C391.91 162.308 391.604 162.243 391.365 162.373C391.125 162.504 391.06 162.809 391.19 163.049C392.127 164.836 393.217 166.557 394.437 168.17L387.943 172.245L387.137 171.417C386.963 171.221 386.658 171.177 386.462 171.352C386.265 171.526 386.222 171.831 386.396 172.027L386.985 172.855L369.398 183.839C367.328 181.79 365.323 179.72 363.318 177.628L372.166 172.572C373.059 173.422 373.909 174.315 374.825 175.231C375.021 175.405 375.304 175.405 375.478 175.231C375.674 175.034 375.674 174.729 375.478 174.533C374.694 173.727 373.887 172.855 373.19 171.962C381.406 167.211 389.6 162.351 397.75 157.405C398.316 157.906 398.883 158.385 399.406 158.843C398.208 161.414 396.922 164.117 395.571 166.95H395.614L395.592 166.971ZM404.963 147.467C403.59 146.203 402.261 144.896 400.975 143.523L405.66 140.102C405.813 139.993 405.922 139.84 405.987 139.666C406.554 139.971 406.99 140.45 407.251 141.039C407.709 142.128 406.445 144.656 404.963 147.38V147.467ZM400.256 139.274C401.062 139.121 401.869 139.012 402.697 138.969H403.372L399.471 141.91C398.796 141.148 398.12 140.385 397.488 139.579L397.772 139.644C398.6 139.557 399.428 139.404 400.234 139.186V139.274H400.256ZM358.328 132.518C359.897 133.39 361.531 134.109 363.209 134.719C361.945 135.591 360.769 136.484 359.439 137.334C357.805 134.872 356.171 132.409 354.58 129.925C354.841 130.143 355.081 130.361 355.299 130.513C356.258 131.232 357.26 131.864 358.306 132.431V132.518H358.328ZM350.679 128.988C350.679 128.988 350.657 129.053 350.657 129.097C352.88 132.3 355.103 135.482 357.413 138.642C354.601 140.559 351.594 142.15 348.434 143.414C348.936 137.944 349.284 134.414 349.371 133.629C349.284 131.951 349.72 130.295 350.657 128.901V128.988H350.679ZM344.163 237.186L345.187 236.663L348.064 235.137C349.742 236.924 351.42 238.755 353.076 240.585L344.751 244.856C344.403 242.459 344.207 239.866 344.076 237.077L344.163 237.186ZM351.071 250.893C350.156 251.765 348.848 252.07 347.65 251.721C346.669 251.568 345.841 250.893 345.514 249.956C345.296 248.757 345.078 247.45 344.904 246.033C345.013 246.033 345.1 245.99 345.187 245.946L353.686 241.152L356.083 243.745C354.601 246.295 352.88 248.692 350.94 250.915H351.049L351.071 250.893Z" fill="#F19EBD"/>
</svg>
